/* XPM */
static char *pixmap[] = {
/* width height ncols cpp */
"32 32 65 2",
  /* Colors */
  "00 c #FFFFFF",
  "01 c #FFFFCC",
  "02 c #FFCCFF",
  "03 c #FFCCCC",
  "04 c #FFCC99",
  "05 c #FF99CC",
  "06 c #FF9999",
  "07 c #FF3333",
  "08 c #CCCCCC",
  "09 c #CCCC99",
  "0A c #CC99CC",
  "0B c #CC9999",
  "0C c #CC9966",
  "0D c #CC6699",
  "0E c #CC6666",
  "0F c #CC6633",
  "10 c #CC3366",
  "11 c #CC3333",
  "12 c #CC3300",
  "13 c #CC0033",
  "14 c #CC0000",
  "15 c #999999",
  "16 c #999966",
  "17 c #996699",
  "18 c #996666",
  "19 c #996633",
  "1A c #993366",
  "1B c #993333",
  "1C c #993300",
  "1D c #990033",
  "1E c #990000",
  "1F c #666666",
  "20 c #666633",
  "21 c #663333",
  "22 c #663300",
  "23 c #660033",
  "24 c #660000",
  "25 c #333333",
  "26 c #333300",
  "27 c #330033",
  "28 c #330000",
  "29 c #DD0000",
  "2A c #BB0000",
  "2B c #AA0000",
  "2C c #880000",
  "2D c #770000",
  "2E c #550000",
  "2F c #440000",
  "30 c #220000",
  "31 c #110000",
  "32 c #002200",
  "33 c #001100",
  "34 c #000011",
  "35 c #EEEEEE",
  "36 c #DDDDDD",
  "37 c #BBBBBB",
  "38 c #AAAAAA",
  "39 c #888888",
  "3A c #777777",
  "3B c #555555",
  "3C c #444444",
  "3D c #222222",
  "3E c #111111",
  "3F c #000000",
  ".. s None c None",
  "........................3F212531................................",
  "........................3F15093A................................",
  "..........................3C0B1634..............................",
  "..........................3F15153C..............................",
  "..........................3F1F0B163F............................",
  "............................320B153D............................",
  "............................3F390818............................",
  "..............................3D03093E..........................",
  "............................3F3D383918..........................",
  "........................3F3C0B350B080B3E..........3F3D3E........",
  "....................3F3B0B03360417093819......3F25390826........",
  "..................3F1803060B0B0B1121261B3D31253801080928........",
  "..................3D060E0E11111B1B1E2E241B08360315183825........",
  "................3F11111B1B2B1B1E1E1B2D2E2109183837360125........",
  "................241B1E2B1E1C1B182C1E21222E1500360B3A2530........",
  "..............281B1E2C1B160A36001621212E241B3B263F3F............",
  "............3F2D1B1808083500150B371603391820....................",
  "............270935363500150B0837350B0003201F3F..................",
  "............3F1800351615093700081602080B21181F..................",
  "............313D160B37370036390B0309051636370031................",
  "............3F2123080035151B0C080B050B180009363B................",
  "............3F212D20360B2D1C0D0B0B0B0C180B150B093F..............",
  "............3F2F212C21241B1D0E0E0E0E18181535370025..............",
  "............3F212B12141C1D1C180E0E18101C180015031F3F............",
  "............3F2E2B2A122912230F1B1B111C1D213619083631............",
  "............3F180B0C1006112A1B111B2C1D1E223508150021............",
  "............3F1A010E110E292A1B1E2B1C1E1D2D36362009153F..........",
  "............3F2F3510110714121E1E1B1E1D1C2D19081836003D..........",
  "........3F..33210B0B0F1314141D1C1E1B2C2C2D3900091535193F........",
  "......3F3F3F3E391503102A1414221D2C2C2C1B2D2101382126343F........",
  "......3F3F3F310B21081C0B112B2D24222D242D24213D313F..............",
  "......3F3F3F3F21242124181B24242424232E2E24283F..3F3F............",
};
